<svg xmlns="http://www.w3.org/2000/svg" width="589.2" height="639.36" viewBox="-14.326 -15.134 29.46 31.968"><style>
	.line {
		stroke: #333;
		stroke-width: .09;
		fill: none;
		stroke-linejoin: round;
		stroke-linecap: round;
	}
	.station {
		stroke: none;
	}
	.transit {
		stroke: #555;
		stroke-width: .05;
		fill: #fff;
	}
</style><g><path class="line Central" style="stroke: #ABDA1E;" d="M-9.618 16.149L-9.618 15.341"></path><path class="line Harbour" style="stroke: #E9629B;" d="M-9.761 16.149L-9.761 15.341"></path><path class="line Central" style="stroke: #ABDA1E;" d="M-9.618 15.341L-9.618 14.534"></path><path class="line Harbour" style="stroke: #E9629B;" d="M-9.761 15.341L-9.761 14.534"></path><path class="line Central" style="stroke: #ABDA1E;" d="M-9.689 14.534L-9.689 13.726"></path><path class="line Central" style="stroke: #ABDA1E;" d="M-9.689 13.726L-9.689 12.919"></path><path class="line Central" style="stroke: #ABDA1E;" d="M-9.689 12.919L-9.689 12.112"></path><path class="line Central" style="stroke: #ABDA1E;" d="M-9.689 12.112L-9.689 10.497"></path><path class="line Central" style="stroke: #ABDA1E;" d="M-9.689 10.497L-9.689 9.689"></path><path class="line Central" style="stroke: #ABDA1E;" d="M-9.689 9.689L-8.882 8.882"></path><path class="line Central" style="stroke: #ABDA1E;" d="M-8.882 8.882L-7.671 7.671"></path><path class="line Central" style="stroke: #ABDA1E;" d="M-7.671 7.671L-6.459 6.459"></path><path class="line Central" style="stroke: #ABDA1E;" d="M-6.459 6.459L-5.652 5.652"></path><path class="line Central" style="stroke: #ABDA1E;" d="M-5.652 5.652L-4.845 4.845"></path><path class="line Central" style="stroke: #ABDA1E;" d="M-4.845 4.845L-4.037 4.037"></path><path class="line Central" style="stroke: #ABDA1E;" d="M-4.037 4.037L-3.23 3.23"></path><path class="line Central" style="stroke: #ABDA1E;" d="M-3.23 3.23L-2.422 2.422"></path><path class="line Central" style="stroke: #ABDA1E;" d="M-2.422 2.422L-1.615 1.615"></path><path class="line Central" style="stroke: #ABDA1E;" d="M-1.615 1.615L-0.807 0.807"></path><path class="line Central" style="stroke: #ABDA1E;" d="M-0.807 0.807L0 0"></path><path class="line Western" style="stroke: #FFBE0B;" d="M-12.112 16.149L-12.112 15.341"></path><path class="line Western" style="stroke: #FFBE0B;" d="M-12.112 15.341L-12.112 14.534"></path><path class="line Western" style="stroke: #FFBE0B;" d="M-12.112 14.534L-12.112 13.726"></path><path class="line Western" style="stroke: #FFBE0B;" d="M-12.112 13.726L-12.112 12.919"></path><path class="line Western" style="stroke: #FFBE0B;" d="M-12.112 12.919L-12.112 12.112"></path><path class="line Western" style="stroke: #FFBE0B;" d="M-12.112 12.112L-11.304 11.304"></path><path class="line Western" style="stroke: #FFBE0B;" d="M-11.304 11.304L-10.497 10.497"></path><path class="line Western" style="stroke: #FFBE0B;" d="M-10.497 10.497L-9.689 9.689"></path><path class="line Western" style="stroke: #FFBE0B;" d="M-9.689 9.689L-9.689 8.478"></path><path class="line Western" style="stroke: #FFBE0B;" d="M-9.689 8.478L-9.689 7.267"></path><path class="line Harbour" style="stroke: #E9629B;" d="M-9.639 7.216L-10.446 6.409"></path><path class="line Western" style="stroke: #FFBE0B;" d="M-9.74 7.317L-10.547 6.51"></path><path class="line Harbour" style="stroke: #E9629B;" d="M-10.446 6.409L-11.254 5.602"></path><path class="line Western" style="stroke: #FFBE0B;" d="M-10.547 6.51L-11.355 5.703"></path><path class="line Harbour" style="stroke: #E9629B;" d="M-11.233 5.652L-11.233 4.845"></path><path class="line Western" style="stroke: #FFBE0B;" d="M-11.376 5.652L-11.376 4.845"></path><path class="line Harbour" style="stroke: #E9629B;" d="M-11.233 4.845L-11.233 4.037"></path><path class="line Western" style="stroke: #FFBE0B;" d="M-11.376 4.845L-11.376 4.037"></path><path class="line Harbour" style="stroke: #E9629B;" d="M-11.233 4.037L-11.233 2.422"></path><path class="line Western" style="stroke: #FFBE0B;" d="M-11.376 4.037L-11.376 2.422"></path><path class="line Harbour" style="stroke: #E9629B;" d="M-11.233 2.422L-11.233 1.615"></path><path class="line Western" style="stroke: #FFBE0B;" d="M-11.376 2.422L-11.376 1.615"></path><path class="line Harbour" style="stroke: #E9629B;" d="M-11.233 1.615L-11.233 0.807"></path><path class="line Western" style="stroke: #FFBE0B;" d="M-11.376 1.615L-11.376 0.807"></path><path class="line Harbour" style="stroke: #E9629B;" d="M-11.233 0.807L-11.233 0"></path><path class="line Western" style="stroke: #FFBE0B;" d="M-11.376 0.807L-11.376 0"></path><path class="line Western" style="stroke: #FFBE0B;" d="M-11.304 0L-11.304 -0.807"></path><path class="line Western" style="stroke: #FFBE0B;" d="M-11.304 -0.807L-11.304 -1.615"></path><path class="line Western" style="stroke: #FFBE0B;" d="M-11.304 -1.615L-11.304 -2.422"></path><path class="line Western" style="stroke: #FFBE0B;" d="M-11.304 -2.422L-11.304 -3.23"></path><path class="line Western" style="stroke: #FFBE0B;" d="M-11.304 -3.23L-11.304 -4.037"></path><path class="line Western" style="stroke: #FFBE0B;" d="M-11.304 -4.037L-11.304 -4.845"></path><path class="line Western" style="stroke: #FFBE0B;" d="M-11.304 -4.845L-11.304 -5.652"></path><path class="line Western" style="stroke: #FFBE0B;" d="M-11.304 -5.652L-11.304 -6.459"></path><path class="line Western" style="stroke: #FFBE0B;" d="M-11.304 -6.459L-11.304 -7.267"></path><path class="line Western" style="stroke: #FFBE0B;" d="M-11.304 -7.267L-11.304 -8.074"></path><path class="line Western" style="stroke: #FFBE0B;" d="M-11.304 -8.074L-11.304 -8.882"></path><path class="line Western" style="stroke: #FFBE0B;" d="M-11.304 -8.882L-11.304 -9.689"></path><path class="line Western" style="stroke: #FFBE0B;" d="M-11.304 -9.689L-11.304 -10.497"></path><path class="line Western" style="stroke: #FFBE0B;" d="M-11.304 -10.497L-11.304 -11.304"></path><path class="line Western" style="stroke: #FFBE0B;" d="M-11.304 -11.304L-11.304 -12.112"></path><path class="line Western" style="stroke: #FFBE0B;" d="M-11.304 -12.112L-11.304 -12.919"></path><path class="line Western" style="stroke: #FFBE0B;" d="M-11.304 -12.919L-11.304 -13.726"></path><path class="line Western" style="stroke: #FFBE0B;" d="M-11.304 -13.726L-11.304 -14.534"></path><path class="line Central" style="stroke: #ABDA1E;" d="M0 0L0.807 -0.807"></path><path class="line Central" style="stroke: #ABDA1E;" d="M0.807 -0.807L1.615 -0.807"></path><path class="line Central" style="stroke: #ABDA1E;" d="M1.615 -0.807L2.422 -0.807"></path><path class="line Central" style="stroke: #ABDA1E;" d="M2.422 -0.807L3.23 -0.807"></path><path class="line Central" style="stroke: #ABDA1E;" d="M3.23 -0.807L4.037 -0.807"></path><path class="line Central" style="stroke: #ABDA1E;" d="M4.037 -0.807L4.845 -0.807"></path><path class="line Central" style="stroke: #ABDA1E;" d="M4.845 -0.807L5.652 -0.807"></path><path class="line Central" style="stroke: #ABDA1E;" d="M5.652 -0.807L6.459 0"></path><path class="line Central" style="stroke: #ABDA1E;" d="M6.459 0L7.267 0.807"></path><path class="line Central" style="stroke: #ABDA1E;" d="M7.267 0.807L8.074 1.615"></path><path class="line Central" style="stroke: #ABDA1E;" d="M8.074 1.615L8.882 2.422"></path><path class="line Central" style="stroke: #ABDA1E;" d="M8.882 2.422L9.689 3.23"></path><path class="line Central" style="stroke: #ABDA1E;" d="M9.689 3.23L10.497 4.037"></path><path class="line Central" style="stroke: #ABDA1E;" d="M10.497 4.037L10.497 4.845"></path><path class="line Central" style="stroke: #ABDA1E;" d="M10.497 4.845L10.497 5.652"></path><path class="line Central" style="stroke: #ABDA1E;" d="M10.497 5.652L10.497 6.459"></path><path class="line Central" style="stroke: #ABDA1E;" d="M10.497 6.459L10.497 7.267"></path><path class="line Central" style="stroke: #ABDA1E;" d="M10.497 7.267L10.497 8.074"></path><path class="line Central" style="stroke: #ABDA1E;" d="M10.497 8.074L10.497 8.882"></path><path class="line Central" style="stroke: #ABDA1E;" d="M10.497 8.882L10.497 9.689"></path><path class="line Central" style="stroke: #ABDA1E;" d="M10.497 9.689L10.497 10.497"></path><path class="line Central" style="stroke: #ABDA1E;" d="M5.652 -0.807L6.459 -1.615"></path><path class="line Central" style="stroke: #ABDA1E;" d="M6.459 -1.615L7.267 -2.422"></path><path class="line Central" style="stroke: #ABDA1E;" d="M7.267 -2.422L8.074 -3.23"></path><path class="line Central" style="stroke: #ABDA1E;" d="M8.074 -3.23L8.882 -4.037"></path><path class="line Central" style="stroke: #ABDA1E;" d="M8.882 -4.037L9.689 -4.845"></path><path class="line Central" style="stroke: #ABDA1E;" d="M9.689 -4.845L10.497 -5.652"></path><path class="line Central" style="stroke: #ABDA1E;" d="M10.497 -5.652L11.304 -6.459"></path><path class="line Central" style="stroke: #ABDA1E;" d="M11.304 -6.459L12.112 -7.267"></path><path class="line Central" style="stroke: #ABDA1E;" d="M12.112 -7.267L12.919 -8.074"></path><path class="line Central" style="stroke: #ABDA1E;" d="M12.919 -8.074L13.726 -8.882"></path><path class="line Central" style="stroke: #ABDA1E;" d="M13.726 -8.882L14.534 -9.689"></path><path class="line Harbour" style="stroke: #E9629B;" d="M-9.689 14.534L-8.478 13.323"></path><path class="line Harbour" style="stroke: #E9629B;" d="M-8.478 13.323L-8.478 12.515"></path><path class="line Harbour" style="stroke: #E9629B;" d="M-8.478 12.515L-8.478 11.708"></path><path class="line Harbour" style="stroke: #E9629B;" d="M-8.478 11.708L-7.267 10.497"></path><path class="line Harbour" style="stroke: #E9629B;" d="M-7.267 10.497L-7.267 9.689"></path><path class="line Harbour" style="stroke: #E9629B;" d="M-7.267 9.689L-6.459 8.882"></path><path class="line Harbour" style="stroke: #E9629B;" d="M-6.459 8.882L-6.459 7.671"></path><path class="line Harbour" style="stroke: #E9629B;" d="M-6.459 7.671L-6.459 6.459"></path><path class="line Harbour" style="stroke: #E9629B;" d="M-6.459 6.459L-5.652 6.459"></path><path class="line Harbour" style="stroke: #E9629B;" d="M-5.652 6.459L-4.845 6.459"></path><path class="line Harbour" style="stroke: #E9629B;" d="M-4.845 6.459L-4.037 6.459"></path><path class="line Harbour" style="stroke: #E9629B;" d="M-4.037 6.459L-3.23 6.459"></path><path class="line Harbour" style="stroke: #E9629B;" d="M-3.23 6.459L-2.422 6.459"></path><path class="line Harbour" style="stroke: #E9629B;" d="M-7.267 9.689L-8.074 8.882"></path><path class="line Harbour" style="stroke: #E9629B;" d="M-8.074 8.882L-9.689 7.267"></path><path class="line Harbour" style="stroke: #E9629B;" d="M-2.473 6.409L-1.262 5.198"></path><path class="line Trans Harbour" style="stroke: #5438DC;" d="M-2.372 6.51L-1.161 5.299"></path><path class="line Harbour" style="stroke: #E9629B;" d="M-1.211 5.248L-0.404 6.056"></path><path class="line Harbour" style="stroke: #E9629B;" d="M-0.353 6.005L0.454 6.813"></path><path class="line Trans Harbour" style="stroke: #5438DC;" d="M-0.454 6.106L0.353 6.914"></path><path class="line Harbour" style="stroke: #E9629B;" d="M0.505 6.762L1.312 7.57"></path><path class="line Trans Harbour" style="stroke: #5438DC;" d="M0.404 6.863L1.211 7.671"></path><path class="line Uran" style="stroke: #C04CFD;" d="M0.303 6.964L1.11 7.772"></path><path class="line Harbour" style="stroke: #E9629B;" d="M1.211 7.599L2.826 7.599"></path><path class="line Trans Harbour" style="stroke: #5438DC;" d="M1.211 7.742L2.826 7.742"></path><path class="line Harbour" style="stroke: #E9629B;" d="M2.826 7.599L3.633 7.599"></path><path class="line Trans Harbour" style="stroke: #5438DC;" d="M2.826 7.742L3.633 7.742"></path><path class="line Harbour" style="stroke: #E9629B;" d="M3.633 7.599L4.441 7.599"></path><path class="line Trans Harbour" style="stroke: #5438DC;" d="M3.633 7.742L4.441 7.742"></path><path class="line Harbour" style="stroke: #E9629B;" d="M4.441 7.599L5.248 7.599"></path><path class="line Trans Harbour" style="stroke: #5438DC;" d="M4.441 7.742L5.248 7.742"></path><path class="line Harbour" style="stroke: #E9629B;" d="M5.248 7.599L6.056 7.599"></path><path class="line Trans Harbour" style="stroke: #5438DC;" d="M5.248 7.742L6.056 7.742"></path><path class="line Trans Harbour" style="stroke: #5438DC;" d="M0 0L0 0.807"></path><path class="line Trans Harbour" style="stroke: #5438DC;" d="M0 0.807L0 1.615"></path><path class="line Trans Harbour" style="stroke: #5438DC;" d="M0 1.615L0 2.422"></path><path class="line Trans Harbour" style="stroke: #5438DC;" d="M0 2.422L0 3.23"></path><path class="line Trans Harbour" style="stroke: #5438DC;" d="M0 3.23L0 4.037"></path><path class="line Trans Harbour" style="stroke: #5438DC;" d="M0 4.037L-1.211 5.248"></path><path class="line Matheran" style="stroke: #B298DC;" d="M10.497 4.845L9.689 5.652"></path><path class="line Matheran" style="stroke: #B298DC;" d="M9.689 5.652L8.882 5.652"></path><path class="line Matheran" style="stroke: #B298DC;" d="M8.882 5.652L8.074 6.459"></path><path class="line Matheran" style="stroke: #B298DC;" d="M8.074 6.459L7.267 7.267"></path><path class="line Uran" style="stroke: #C04CFD;" d="M1.211 7.671L2.019 8.478"></path><path class="line Uran" style="stroke: #C04CFD;" d="M2.019 8.478L2.019 9.286"></path><path class="line Uran" style="stroke: #C04CFD;" d="M2.019 9.286L2.019 10.093"></path><path class="line Uran" style="stroke: #C04CFD;" d="M2.826 7.671L2.019 8.478"></path><path class="line Metro 1" style="stroke: #3185FC;" d="M-4.845 4.845L-5.652 4.037"></path><path class="line Metro 1" style="stroke: #3185FC;" d="M-5.652 4.037L-6.459 3.23"></path><path class="line Metro 1" style="stroke: #3185FC;" d="M-6.459 3.23L-7.267 2.422"></path><path class="line Metro 1" style="stroke: #3185FC;" d="M-7.267 2.422L-8.074 2.422"></path><path class="line Metro 1" style="stroke: #3185FC;" d="M-8.074 2.422L-8.882 2.422"></path><path class="line Metro 1" style="stroke: #3185FC;" d="M-8.882 2.422L-9.689 2.422"></path><path class="line Metro 1" style="stroke: #3185FC;" d="M-9.689 2.422L-10.497 2.422"></path><path class="line Metro 1" style="stroke: #3185FC;" d="M-10.497 2.422L-11.304 2.422"></path><path class="line Metro 1" style="stroke: #3185FC;" d="M-11.304 2.422L-12.112 2.422"></path><path class="line Metro 1" style="stroke: #3185FC;" d="M-12.112 2.422L-12.919 2.422"></path><path class="line Metro 1" style="stroke: #3185FC;" d="M-12.919 2.422L-13.726 2.422"></path><circle class="station transit" data-id="TNA" data-label="Thane" r="0.13" fill="#333"></circle><circle class="station" data-id="MLND" data-label="Mulund" cx="-0.807" cy="0.807" r="0.1" fill="#ABDA1E"></circle><circle class="station" data-id="BND" data-label="Bhandup" cx="-2.422" cy="2.422" r="0.1" fill="#ABDA1E"></circle><circle class="station" data-id="KJMG" data-label="Kanjurmarg" cx="-3.23" cy="3.23" r="0.1" fill="#ABDA1E"></circle><circle class="station" data-id="VK" data-label="Vikhroli" cx="-4.037" cy="4.037" r="0.1" fill="#ABDA1E"></circle><circle class="station transit" data-id="GC" data-label="Ghatkopar" cx="-4.845" cy="4.845" r="0.13" fill="#333"></circle><circle class="station" data-id="VVH" data-label="Vidyavihar" cx="-5.652" cy="5.652" r="0.1" fill="#ABDA1E"></circle><circle class="station transit" data-id="CLA" data-label="Kurla" cx="-6.459" cy="6.459" r="0.13" fill="#333"></circle><circle class="station" data-id="SIN" data-label="Sion" cx="-7.671" cy="7.671" r="0.1" fill="#ABDA1E"></circle><circle class="station" data-id="MTN" data-label="Matunga" cx="-8.882" cy="8.882" r="0.1" fill="#ABDA1E"></circle><circle class="station transit" data-id="DR" data-label="Dadar" cx="-9.689" cy="9.689" r="0.13" fill="#333"></circle><circle class="station" data-id="PR" data-label="Parel" cx="-9.689" cy="10.497" r="0.1" fill="#ABDA1E"></circle><circle class="station" data-id="CRD" data-label="Currey Road" cx="-9.689" cy="12.112" r="0.1" fill="#ABDA1E"></circle><circle class="station" data-id="CHG" data-label="Chinchpokli" cx="-9.689" cy="12.919" r="0.1" fill="#ABDA1E"></circle><circle class="station" data-id="BY" data-label="Byculla" cx="-9.689" cy="13.726" r="0.1" fill="#ABDA1E"></circle><circle class="station transit" data-id="SNRD" data-label="Sandhurst Road" cx="-9.689" cy="14.534" r="0.185" fill="#333"></circle><circle class="station transit" data-id="MSD" data-label="Masjid" cx="-9.689" cy="15.341" r="0.185" fill="#333"></circle><circle class="station transit" data-id="CSMT" data-label="Chhatrapati Shivaji Maharaj Terminus" cx="-9.689" cy="16.149" r="0.185" fill="#333"></circle><circle class="station" data-id="NHU" data-label="Nahur" cx="-1.615" cy="1.615" r="0.1" fill="#ABDA1E"></circle><circle class="station" data-id="CCG" data-label="Churchgate" cx="-12.112" cy="16.149" r="0.1" fill="#FFBE0B"></circle><circle class="station" data-id="MEL" data-label="Marine Lines" cx="-12.112" cy="15.341" r="0.1" fill="#FFBE0B"></circle><circle class="station" data-id="CYR" data-label="Charni Road" cx="-12.112" cy="14.534" r="0.1" fill="#FFBE0B"></circle><circle class="station" data-id="GTR" data-label="Grant Road" cx="-12.112" cy="13.726" r="0.1" fill="#FFBE0B"></circle><circle class="station" data-id="MMCT" data-label="Mumbai Central" cx="-12.112" cy="12.919" r="0.1" fill="#FFBE0B"></circle><circle class="station" data-id="MX" data-label="Mahalakshmi" cx="-12.112" cy="12.112" r="0.1" fill="#FFBE0B"></circle><circle class="station" data-id="PL" data-label="Lower Parel" cx="-11.304" cy="11.304" r="0.1" fill="#FFBE0B"></circle><circle class="station" data-id="PBHD" data-label="Prabhadevi" cx="-10.497" cy="10.497" r="0.1" fill="#FFBE0B"></circle><circle class="station" data-id="MRU" data-label="Matunga Road" cx="-9.689" cy="8.478" r="0.1" fill="#FFBE0B"></circle><circle class="station transit" data-id="MM" data-label="Mahim" cx="-9.689" cy="7.267" r="0.185" fill="#333"></circle><circle class="station transit" data-id="BA" data-label="Bandra" cx="-10.497" cy="6.459" r="0.185" fill="#333"></circle><circle class="station transit" data-id="KHAR" data-label="Khar Road" cx="-11.304" cy="5.652" r="0.185" fill="#333"></circle><circle class="station transit" data-id="STC" data-label="Santacruz" cx="-11.304" cy="4.845" r="0.185" fill="#333"></circle><circle class="station transit" data-id="VLP" data-label="Vile Parle" cx="-11.304" cy="4.037" r="0.185" fill="#333"></circle><circle class="station transit" data-id="ADH" data-label="Andheri" cx="-11.304" cy="2.422" r="0.185" fill="#333"></circle><circle class="station transit" data-id="JOS" data-label="Jogeshwari" cx="-11.304" cy="1.615" r="0.185" fill="#333"></circle><circle class="station transit" data-id="RMAR" data-label="Ram Mandir" cx="-11.304" cy="0.807" r="0.185" fill="#333"></circle><circle class="station transit" data-id="GMN" data-label="Goregaon" cx="-11.304" r="0.185" fill="#333"></circle><circle class="station" data-id="MDD" data-label="Malad" cx="-11.304" cy="-0.807" r="0.1" fill="#FFBE0B"></circle><circle class="station" data-id="KILE" data-label="Kandivli" cx="-11.304" cy="-1.615" r="0.1" fill="#FFBE0B"></circle><circle class="station" data-id="BVI" data-label="Borivali" cx="-11.304" cy="-2.422" r="0.1" fill="#FFBE0B"></circle><circle class="station" data-id="DIC" data-label="Dahisar" cx="-11.304" cy="-3.23" r="0.1" fill="#FFBE0B"></circle><circle class="station" data-id="MIRA" data-label="Mira Road" cx="-11.304" cy="-4.037" r="0.1" fill="#FFBE0B"></circle><circle class="station" data-id="BYR" data-label="Bhayandar" cx="-11.304" cy="-4.845" r="0.1" fill="#FFBE0B"></circle><circle class="station" data-id="NIG" data-label="Naigaon" cx="-11.304" cy="-5.652" r="0.1" fill="#FFBE0B"></circle><circle class="station" data-id="BSR" data-label="Vasai Road" cx="-11.304" cy="-6.459" r="0.1" fill="#FFBE0B"></circle><circle class="station" data-id="NSP" data-label="Nalla Sopara" cx="-11.304" cy="-7.267" r="0.1" fill="#FFBE0B"></circle><circle class="station" data-id="VR" data-label="Virar" cx="-11.304" cy="-8.074" r="0.1" fill="#FFBE0B"></circle><circle class="station" data-id="VTN" data-label="Vaitarna" cx="-11.304" cy="-8.882" r="0.1" fill="#FFBE0B"></circle><circle class="station" data-id="SAH" data-label="Saphale" cx="-11.304" cy="-9.689" r="0.1" fill="#FFBE0B"></circle><circle class="station" data-id="KLV" data-label="Kelve Road" cx="-11.304" cy="-10.497" r="0.1" fill="#FFBE0B"></circle><circle class="station" data-id="PLG" data-label="Palghar" cx="-11.304" cy="-11.304" r="0.1" fill="#FFBE0B"></circle><circle class="station" data-id="UOI" data-label="Umroli" cx="-11.304" cy="-12.112" r="0.1" fill="#FFBE0B"></circle><circle class="station" data-id="BOR" data-label="Boisar" cx="-11.304" cy="-12.919" r="0.1" fill="#FFBE0B"></circle><circle class="station" data-id="VGN" data-label="Vangaon" cx="-11.304" cy="-13.726" r="0.1" fill="#FFBE0B"></circle><circle class="station" data-id="DRD" data-label="Dahanu Road" cx="-11.304" cy="-14.534" r="0.1" fill="#FFBE0B"></circle><circle class="station" data-id="KLVA" data-label="Kalva" cx="0.807" cy="-0.807" r="0.1" fill="#ABDA1E"></circle><circle class="station" data-id="MBQ" data-label="Mumbra" cx="1.615" cy="-0.807" r="0.1" fill="#ABDA1E"></circle><circle class="station" data-id="DIVA" data-label="Diva" cx="2.422" cy="-0.807" r="0.1" fill="#ABDA1E"></circle><circle class="station" data-id="KOPR" data-label="Kopar" cx="3.23" cy="-0.807" r="0.1" fill="#ABDA1E"></circle><circle class="station" data-id="DI" data-label="Dombivli" cx="4.037" cy="-0.807" r="0.1" fill="#ABDA1E"></circle><circle class="station" data-id="THK" data-label="Thakurli" cx="4.845" cy="-0.807" r="0.1" fill="#ABDA1E"></circle><circle class="station transit" data-id="KYN" data-label="Kalyan" cx="5.652" cy="-0.807" r="0.13" fill="#333"></circle><circle class="station" data-id="VLDI" data-label="Vitthalwadi" cx="6.459" r="0.1" fill="#ABDA1E"></circle><circle class="station" data-id="ULNR" data-label="Ulhasnagar" cx="7.267" cy="0.807" r="0.1" fill="#ABDA1E"></circle><circle class="station" data-id="ABH" data-label="Ambarnath" cx="8.074" cy="1.615" r="0.1" fill="#ABDA1E"></circle><circle class="station" data-id="BUD" data-label="Badlapur" cx="8.882" cy="2.422" r="0.1" fill="#ABDA1E"></circle><circle class="station" data-id="VGI" data-label="Vangani" cx="9.689" cy="3.23" r="0.1" fill="#ABDA1E"></circle><circle class="station" data-id="SHLU" data-label="Shelu" cx="10.497" cy="4.037" r="0.1" fill="#ABDA1E"></circle><circle class="station transit" data-id="NRL" data-label="Neral" cx="10.497" cy="4.845" r="0.13" fill="#333"></circle><circle class="station" data-id="BVS" data-label="Bhivpuri Road" cx="10.497" cy="5.652" r="0.1" fill="#ABDA1E"></circle><circle class="station" data-id="KJT" data-label="Karjat" cx="10.497" cy="6.459" r="0.1" fill="#ABDA1E"></circle><circle class="station" data-id="PDI" data-label="Palasdhari" cx="10.497" cy="7.267" r="0.1" fill="#ABDA1E"></circle><circle class="station" data-id="KLY" data-label="Kelavali" cx="10.497" cy="8.074" r="0.1" fill="#ABDA1E"></circle><circle class="station" data-id="DLV" data-label="Dolavali" cx="10.497" cy="8.882" r="0.1" fill="#ABDA1E"></circle><circle class="station" data-id="LWJ" data-label="Lowjee" cx="10.497" cy="9.689" r="0.1" fill="#ABDA1E"></circle><circle class="station" data-id="KHPI" data-label="Khopoli" cx="10.497" cy="10.497" r="0.1" fill="#ABDA1E"></circle><circle class="station" data-id="SHAD" data-label="Shahad" cx="6.459" cy="-1.615" r="0.1" fill="#ABDA1E"></circle><circle class="station" data-id="ABY" data-label="Ambivli" cx="7.267" cy="-2.422" r="0.1" fill="#ABDA1E"></circle><circle class="station" data-id="TLA" data-label="Titvala" cx="8.074" cy="-3.23" r="0.1" fill="#ABDA1E"></circle><circle class="station" data-id="KDV" data-label="Khadavli" cx="8.882" cy="-4.037" r="0.1" fill="#ABDA1E"></circle><circle class="station" data-id="VSD" data-label="Vasind" cx="9.689" cy="-4.845" r="0.1" fill="#ABDA1E"></circle><circle class="station" data-id="ASO" data-label="Asangaon" cx="10.497" cy="-5.652" r="0.1" fill="#ABDA1E"></circle><circle class="station" data-id="ATG" data-label="Atgaon" cx="11.304" cy="-6.459" r="0.1" fill="#ABDA1E"></circle><circle class="station" data-id="THS" data-label="Thansit" cx="12.112" cy="-7.267" r="0.1" fill="#ABDA1E"></circle><circle class="station" data-id="KE" data-label="Khardi" cx="12.919" cy="-8.074" r="0.1" fill="#ABDA1E"></circle><circle class="station" data-id="OMB" data-label="Oombermali" cx="13.726" cy="-8.882" r="0.1" fill="#ABDA1E"></circle><circle class="station" data-id="KSRA" data-label="Kasara" cx="14.534" cy="-9.689" r="0.1" fill="#ABDA1E"></circle><circle class="station" data-id="DKRD" data-label="Dockyard Road" cx="-8.478" cy="13.323" r="0.1" fill="#E9629B"></circle><circle class="station" data-id="RRD" data-label="Reay Road" cx="-8.478" cy="12.515" r="0.1" fill="#E9629B"></circle><circle class="station" data-id="CTGN" data-label="Cotton Green" cx="-8.478" cy="11.708" r="0.1" fill="#E9629B"></circle><circle class="station" data-id="SVE" data-label="Sewri" cx="-7.267" cy="10.497" r="0.1" fill="#E9629B"></circle><circle class="station transit" data-id="VDLR" data-label="Vadala Road" cx="-7.267" cy="9.689" r="0.13" fill="#333"></circle><circle class="station" data-id="GTBN" data-label="Guru Tegh Bahadur Nagar" cx="-6.459" cy="8.882" r="0.1" fill="#E9629B"></circle><circle class="station" data-id="CHF" data-label="Chuna Bhatti" cx="-6.459" cy="7.671" r="0.1" fill="#E9629B"></circle><circle class="station" data-id="TKNG" data-label="Tilaknagar" cx="-5.652" cy="6.459" r="0.1" fill="#E9629B"></circle><circle class="station" data-id="CMBR" data-label="Chembur" cx="-4.845" cy="6.459" r="0.1" fill="#E9629B"></circle><circle class="station" data-id="GV" data-label="Govandi" cx="-4.037" cy="6.459" r="0.1" fill="#E9629B"></circle><circle class="station" data-id="MNKD" data-label="Mankhurd" cx="-3.23" cy="6.459" r="0.1" fill="#E9629B"></circle><circle class="station transit" data-id="VSH" data-label="Vashi" cx="-2.422" cy="6.459" r="0.185" fill="#333"></circle><circle class="station" data-id="KCE" data-label="Kings Circle" cx="-8.074" cy="8.882" r="0.1" fill="#E9629B"></circle><circle class="station transit" data-id="SNCR" data-label="Sanpada" cx="-1.211" cy="5.248" r="0.185" fill="#333"></circle><circle class="station transit" data-id="JNJ" data-label="Juinagar" cx="-0.404" cy="6.056" r="0.185" fill="#333"></circle><circle class="station transit" data-id="NEU" data-label="Nerul" cx="0.404" cy="6.863" r="0.24" fill="#333"></circle><circle class="station transit" data-id="SWDV" data-label="Seawoods - Darave" cx="1.211" cy="7.671" r="0.24" fill="#333"></circle><circle class="station transit" data-id="BEPR" data-label="CBD Belapur" cx="2.826" cy="7.671" r="0.185" fill="#333"></circle><circle class="station transit" data-id="KHAG" data-label="Kharghar" cx="3.633" cy="7.671" r="0.185" fill="#333"></circle><circle class="station transit" data-id="MANR" data-label="Mansarovar" cx="4.441" cy="7.671" r="0.185" fill="#333"></circle><circle class="station transit" data-id="KNDS" data-label="Khandeshwar" cx="5.248" cy="7.671" r="0.185" fill="#333"></circle><circle class="station transit" data-id="PNVL" data-label="Panvel" cx="6.056" cy="7.671" r="0.185" fill="#333"></circle><circle class="station" data-id="AIRL" data-label="Airoli" cy="0.807" r="0.1" fill="#5438DC"></circle><circle class="station" data-id="RABE" data-label="Rabale" cy="1.615" r="0.1" fill="#5438DC"></circle><circle class="station" data-id="GNSL" data-label="Ghansoli" cy="2.422" r="0.1" fill="#5438DC"></circle><circle class="station" data-id="KPHN" data-label="Koparkhairane" cy="3.23" r="0.1" fill="#5438DC"></circle><circle class="station" data-id="TUH" data-label="Turbhe" cy="4.037" r="0.1" fill="#5438DC"></circle><circle class="station" data-id="JTT" data-label="Juma Patti" cx="9.689" cy="5.652" r="0.1" fill="#B298DC"></circle><circle class="station" data-id="WTP" data-label="Water Pipe" cx="8.882" cy="5.652" r="0.1" fill="#B298DC"></circle><circle class="station" data-id="AMAN" data-label="Aman Lodge" cx="8.074" cy="6.459" r="0.1" fill="#B298DC"></circle><circle class="station" data-id="MAE" data-label="Matheran" cx="7.267" cy="7.267" r="0.1" fill="#B298DC"></circle><circle class="station transit" data-id="TRGHR" data-label="Targhar" cx="2.019" cy="8.478" r="0.13" fill="#333"></circle><circle class="station" data-id="BMDR" data-label="Bamandongri" cx="2.019" cy="9.286" r="0.1" fill="#C04CFD"></circle><circle class="station" data-id="KARP" data-label="Kharkopar" cx="2.019" cy="10.093" r="0.1" fill="#C04CFD"></circle><circle class="station" data-id="JGN" data-label="Jagruti Nagar" cx="-5.652" cy="4.037" r="0.1" fill="#3185FC"></circle><circle class="station" data-id="APA" data-label="Asalpha" cx="-6.459" cy="3.23" r="0.1" fill="#3185FC"></circle><circle class="station" data-id="SKN" data-label="Saki Naka" cx="-7.267" cy="2.422" r="0.1" fill="#3185FC"></circle><circle class="station" data-id="MLN" data-label="Marol Naka" cx="-8.074" cy="2.422" r="0.1" fill="#3185FC"></circle><circle class="station" data-id="APR" data-label="Airport Road" cx="-8.882" cy="2.422" r="0.1" fill="#3185FC"></circle><circle class="station" data-id="CHA" data-label="Chakala(J B Nagar)" cx="-9.689" cy="2.422" r="0.1" fill="#3185FC"></circle><circle class="station" data-id="WEH" data-label="WEH" cx="-10.497" cy="2.422" r="0.1" fill="#3185FC"></circle><circle class="station" data-id="AZN" data-label="Azad Nagar" cx="-12.112" cy="2.422" r="0.1" fill="#3185FC"></circle><circle class="station" data-id="DNN" data-label="D N Nagar" cx="-12.919" cy="2.422" r="0.1" fill="#3185FC"></circle><circle class="station" data-id="VOA" data-label="Versova" cx="-13.726" cy="2.422" r="0.1" fill="#3185FC"></circle></g></svg>